<svg xmlns="http://www.w3.org/2000/svg" width="1000" height="1000" viewBox="0 0 1000 1000" role="img" aria-label="POVKH LAB Terminal Relic compact mark">
  <title>POVKH LAB Terminal Relic compact mark</title>
  <rect width="1000" height="1000" fill="#080808"/>
  <path fill="#F2EFE7" d="M462 1257C414 1257 368 1241 324 1209C282 1177 247 1135 219 1083C191 1029 175 973 171 915C125 921 90 932 66 948C42 964 30 992 30 1032C10 998 8.31485e-06 965 8.31485e-06 933C8.31485e-06 829 61 773 183 765C205 665 253 586 327 528C403 470 492 437 594 429C576 389 533 366 465 360C297 348 213 287 213 177C213 131 231 89.9999 267 53.9999C305 17.9999 346 -9.65595e-05 390 -9.65595e-05C428 -9.65595e-05 460 7.99992 486 24H465C443 24 426 29.9999 414 41.9999C404 51.9999 399 73 399 105C399 153 444 204 534 258C624 312 674 368 684 426C706 428 731 435 759 447C787 457 817 471 849 489C921 529 971 552 999 558C933 486 900 397 900 291C900 105 1022 11.9999 1266 11.9999C1326 11.9999 1385 28.9999 1443 62.9999C1503 96.9999 1553 141 1593 195L1692 330C1752 410 1802 468 1842 504C1882 540 1923 558 1965 558C2005 558 2039 543 2067 513C2097 481 2112 449 2112 417C2112 377 2100 345 2076 321C2052 295 2021 282 1983 282C1971 282 1954 286 1932 294C1912 300 1886 309 1854 321C1796 295 1767 258 1767 210C1767 140 1811 105 1899 105C1979 105 2049 137 2109 201C2169 263 2199 353 2199 471V483C2199 563 2179 644 2139 726C2099 808 2045 885 1977 957C1909 1027 1832 1085 1746 1131C1618 1199 1482 1233 1338 1233C1256 1233 1175 1220 1095 1194C1017 1168 952 1130 900 1080C850 1028 825 966 825 894C825 832 838 780 864 738C890 696 934 664 996 642C976 636 953 628 927 618C901 606 873 591 843 573C785 537 735 513 693 501C693 605 659 691 591 759C523 827 429 870 309 888C321 992 357 1044 417 1044C445 1044 465 1032 477 1008C489 984 513 972 549 972C577 972 599 984 615 1008C633 1030 642 1057 642 1089C642 1123 626 1160 594 1200C562 1238 518 1257 462 1257ZM303 765C405 761 483 738 537 696C593 654 621 594 621 516V495C533 503 461 531 405 579C351 627 317 689 303 765Z" transform="translate(110 277) scale(0.35470668)"/>
</svg>
