<svg xmlns="http://www.w3.org/2000/svg" width="1000" height="1000" viewBox="0 0 1000 1000" role="img" aria-label="POVKH LAB Terminal Relic primary logo">
  <title>POVKH LAB Terminal Relic primary logo</title>
  <rect width="1000" height="1000" fill="#080808"/>
  <path fill="#F2EFE7" d="M462 1257C414 1257 368 1241 324 1209C282 1177 247 1135 219 1083C191 1029 175 973 171 915C125 921 90 932 66 948C42 964 30 992 30 1032C10 998 8.31485e-06 965 8.31485e-06 933C8.31485e-06 829 61 773 183 765C205 665 253 586 327 528C403 470 492 437 594 429C576 389 533 366 465 360C297 348 213 287 213 177C213 131 231 89.9999 267 53.9999C305 17.9999 346 -9.65595e-05 390 -9.65595e-05C428 -9.65595e-05 460 7.99992 486 24H465C443 24 426 29.9999 414 41.9999C404 51.9999 399 73 399 105C399 153 444 204 534 258C624 312 674 368 684 426C706 428 731 435 759 447C787 457 817 471 849 489C921 529 971 552 999 558C933 486 900 397 900 291C900 105 1022 11.9999 1266 11.9999C1326 11.9999 1385 28.9999 1443 62.9999C1503 96.9999 1553 141 1593 195L1692 330C1752 410 1802 468 1842 504C1882 540 1923 558 1965 558C2005 558 2039 543 2067 513C2097 481 2112 449 2112 417C2112 377 2100 345 2076 321C2052 295 2021 282 1983 282C1971 282 1954 286 1932 294C1912 300 1886 309 1854 321C1796 295 1767 258 1767 210C1767 140 1811 105 1899 105C1979 105 2049 137 2109 201C2169 263 2199 353 2199 471V483C2199 563 2179 644 2139 726C2099 808 2045 885 1977 957C1909 1027 1832 1085 1746 1131C1618 1199 1482 1233 1338 1233C1256 1233 1175 1220 1095 1194C1017 1168 952 1130 900 1080C850 1028 825 966 825 894C825 832 838 780 864 738C890 696 934 664 996 642C976 636 953 628 927 618C901 606 873 591 843 573C785 537 735 513 693 501C693 605 659 691 591 759C523 827 429 870 309 888C321 992 357 1044 417 1044C445 1044 465 1032 477 1008C489 984 513 972 549 972C577 972 599 984 615 1008C633 1030 642 1057 642 1089C642 1123 626 1160 594 1200C562 1238 518 1257 462 1257ZM303 765C405 761 483 738 537 696C593 654 621 594 621 516V495C533 503 461 531 405 579C351 627 317 689 303 765Z" transform="translate(195 80) scale(0.27739882)"/>
  <rect x="130" y="474" width="740" height="18" fill="#F2EFE7"/>
  <path fill="#F2EFE7" d="M469 475Q469 411 444.5 362.0Q420 313 376.0 286.5Q332 260 274 260H218Q212 260 212 254V15Q212 8 208.0 4.0Q204 0 197 0H39Q32 0 28.0 4.0Q24 8 24 15V685Q24 692 28.0 696.0Q32 700 39 700H264Q324 700 370.5 671.5Q417 643 443.0 592.0Q469 541 469 475ZM281 471Q281 504 267.5 521.5Q254 539 231 539H218Q212 539 212 533V411Q212 405 218 405H231Q254 405 267.5 421.5Q281 438 281 471ZM501 206V494Q501 592 561.5 650.0Q622 708 723 708Q824 708 884.5 650.0Q945 592 945 494V206Q945 108 884.5 50.0Q824 -8 723 -8Q622 -8 561.5 50.0Q501 108 501 206ZM757 198V502Q757 523 748.0 535.0Q739 547 723 547Q707 547 698.0 535.0Q689 523 689 502V198Q689 177 698.0 165.0Q707 153 723 153Q739 153 748.0 165.0Q757 177 757 198ZM1120 13 980 684V688Q980 700 994 700H1166Q1181 700 1182 686L1227 332Q1227 329 1230.0 329.0Q1233 329 1233 332L1274 686Q1275 700 1290 700H1457Q1474 700 1471 684L1329 13Q1326 0 1312 0H1137Q1123 0 1120 13ZM1512 15V685Q1512 692 1516.0 696.0Q1520 700 1527 700H1685Q1692 700 1696.0 696.0Q1700 692 1700 685V487Q1700 483 1702.5 482.5Q1705 482 1707 486L1791 688Q1796 700 1809 700H1974Q1982 700 1986.0 695.0Q1990 690 1986 682L1845 387Q1844 383 1845 379L1990 17Q1991 14 1991 10Q1991 0 1978 0H1812Q1799 0 1794 12L1717 217Q1716 222 1713.5 222.0Q1711 222 1709 217L1701 197Q1700 195 1700 189V15Q1700 8 1696.0 4.0Q1692 0 1685 0H1527Q1520 0 1516.0 4.0Q1512 8 1512 15ZM2290 700H2448Q2455 700 2459.0 696.0Q2463 692 2463 685V15Q2463 8 2459.0 4.0Q2455 0 2448 0H2290Q2283 0 2279.0 4.0Q2275 8 2275 15V264Q2275 270 2269 270H2223Q2217 270 2217 264V15Q2217 8 2213.0 4.0Q2209 0 2202 0H2044Q2037 0 2033.0 4.0Q2029 8 2029 15V685Q2029 692 2033.0 696.0Q2037 700 2044 700H2202Q2209 700 2213.0 696.0Q2217 692 2217 685V437Q2217 431 2223 431H2269Q2275 431 2275 437V685Q2275 692 2279.0 696.0Q2283 700 2290 700Z" transform="translate(130 747) scale(0.29730816 -0.30000000)"/>
  <path fill="#F2EFE7" d="M26 15V685Q26 692 30.0 696.0Q34 700 41 700H199Q206 700 210.0 696.0Q214 692 214 685V167Q214 161 220 161H415Q422 161 426.0 157.0Q430 153 430 146V15Q430 8 426.0 4.0Q422 0 415 0H41Q34 0 30.0 4.0Q26 8 26 15ZM771 14 760 89Q760 91 758.0 93.0Q756 95 753 95H665Q662 95 660.0 93.0Q658 91 658 89L648 14Q647 0 632 0H475Q459 0 462 16L604 687Q607 700 621 700H803Q817 700 820 687L962 16V12Q962 0 948 0H787Q772 0 771 14ZM685 239H732Q739 239 737 245L710 425Q709 429 707.0 429.0Q705 429 704 425L680 245Q680 239 685 239ZM1229 0H1018Q1011 0 1007.0 4.0Q1003 8 1003 15V685Q1003 692 1007.0 696.0Q1011 700 1018 700H1199Q1308 700 1369.5 651.0Q1431 602 1431 503Q1431 411 1374 366Q1369 362 1372 359Q1445 303 1445 197Q1445 102 1384.0 51.0Q1323 0 1229 0ZM1191 533V433Q1191 427 1197 427H1202Q1247 427 1247 483Q1247 539 1202 539H1197Q1191 539 1191 533ZM1257 225Q1257 256 1245.5 274.5Q1234 293 1215 293H1197Q1191 293 1191 287V167Q1191 161 1197 161H1214Q1233 161 1245.0 177.5Q1257 194 1257 225Z" transform="translate(130 930) scale(0.28062971 -0.21800000)"/>
</svg>
