<svg xmlns="http://www.w3.org/2000/svg" viewBox="0 0 1600 1600" role="img" aria-labelledby="title description">
  <title id="title">PVKH-004 OFFICE signal visual</title>
  <desc id="description">Catalog signal generated from the track waveform. This is not official release artwork.</desc>
  <defs><pattern id="grid" width="48" height="48" patternUnits="userSpaceOnUse"><path d="M48 0H0V48" fill="none" stroke="#f2efe8" stroke-opacity=".055"/></pattern></defs>
  <rect width="1600" height="1600" fill="#080808"/><rect width="1600" height="1600" fill="url(#grid)"/>
  <g fill="none" stroke="#f2efe8" stroke-opacity=".28"><path d="M96 90v36"/><path d="M213 90v16"/><path d="M330 90v16"/><path d="M447 90v16"/><path d="M564 90v36"/><path d="M681 90v16"/><path d="M798 90v16"/><path d="M915 90v16"/><path d="M1032 90v36"/><path d="M1149 90v16"/><path d="M1266 90v16"/><path d="M1383 90v16"/><path d="M1500 90v36"/><path d="M96 126H1504M96 1472H1504"/></g>
  <path d="M0.00 168.52 L7.42 166.11 L14.84 159.90 L22.26 166.24 L29.69 150.76 L37.11 151.78 L44.53 154.22 L51.95 159.56 L59.37 2.94 L66.79 0.00 L74.21 40.92 L81.64 1.78 L89.06 39.87 L96.48 0.00 L103.90 163.64 L111.32 150.62 L118.74 0.00 L126.16 156.60 L133.58 3.62 L141.01 160.14 L148.43 12.41 L155.85 161.26 L163.27 160.79 L170.69 20.04 L178.11 161.26 L185.53 152.90 L192.96 14.71 L200.38 71.11 L207.80 0.00 L215.22 142.27 L222.64 0.00 L230.06 149.26 L237.48 142.31 L244.91 0.00 L252.33 11.27 L259.75 70.41 L267.17 0.00 L274.59 20.71 L282.01 0.00 L289.43 29.41 L296.86 0.00 L304.28 43.38 L311.70 121.99 L319.12 0.00 L326.54 25.11 L333.96 79.39 L341.38 16.37 L348.81 35.84 L356.23 0.00 L363.65 30.55 L371.07 0.00 L378.49 36.36 L385.91 7.09 L393.33 0.00 L400.75 8.70 L408.18 93.74 L415.60 77.18 L423.02 0.00 L430.44 34.31 L437.86 0.00 L445.28 0.00 L452.70 21.76 L460.13 136.70 L467.55 125.26 L474.97 0.00 L482.39 75.48 L489.81 87.92 L497.23 8.91 L504.65 68.97 L512.08 0.00 L519.50 109.68 L526.92 5.95 L534.34 111.03 L541.76 122.84 L549.18 0.00 L556.60 115.21 L564.03 98.96 L571.45 101.59 L578.87 143.19 L586.29 16.17 L593.71 139.06 L601.13 139.13 L608.55 140.83 L615.97 155.81 L623.40 12.99 L630.82 106.37 L638.24 110.19 L645.66 77.44 L653.08 110.82 L660.50 15.57 L667.92 53.40 L675.35 137.72 L682.77 116.59 L690.19 30.85 L697.61 5.44 L705.03 7.97 L712.45 121.35 L719.87 106.83 L727.30 137.24 L734.72 7.91 L742.14 35.14 L749.56 151.59 L756.98 143.62 L764.40 156.96 L771.82 15.06 L779.25 27.79 L786.67 104.09 L794.09 77.88 L801.51 107.83 L808.93 14.47 L816.35 29.56 L823.77 136.07 L831.19 115.79 L838.62 29.51 L846.04 37.06 L853.46 0.00 L860.88 107.85 L868.30 95.81 L875.72 124.64 L883.14 142.34 L890.57 0.00 L897.99 148.10 L905.41 141.63 L912.83 148.36 L920.25 155.58 L927.67 0.00 L935.09 96.31 L942.52 89.47 L949.94 102.85 L957.36 107.68 L964.78 0.00 L972.20 122.48 L979.62 93.48 L987.04 109.28 L994.47 5.88 L1001.89 0.00 L1009.31 106.16 L1016.73 96.90 L1024.15 98.91 L1031.57 126.80 L1038.99 0.00 L1046.42 70.11 L1053.84 149.51 L1061.26 137.43 L1068.68 154.07 L1076.10 0.00 L1083.52 52.17 L1090.94 102.88 L1098.36 89.40 L1105.79 108.89 L1113.21 0.00 L1120.63 46.55 L1128.05 124.54 L1135.47 100.59 L1142.89 4.40 L1150.31 71.62 L1157.74 156.93 L1165.16 153.68 L1172.58 132.07 L1180.00 143.70" transform="translate(210 640)" fill="none" stroke="#f2efe8" stroke-width="3" vector-effect="non-scaling-stroke"/>
  <path d="M0.00 168.52 L7.42 166.11 L14.84 159.90 L22.26 166.24 L29.69 150.76 L37.11 151.78 L44.53 154.22 L51.95 159.56 L59.37 2.94 L66.79 0.00 L74.21 40.92 L81.64 1.78 L89.06 39.87 L96.48 0.00 L103.90 163.64 L111.32 150.62 L118.74 0.00 L126.16 156.60 L133.58 3.62 L141.01 160.14 L148.43 12.41 L155.85 161.26 L163.27 160.79 L170.69 20.04 L178.11 161.26 L185.53 152.90 L192.96 14.71 L200.38 71.11 L207.80 0.00 L215.22 142.27 L222.64 0.00 L230.06 149.26 L237.48 142.31 L244.91 0.00 L252.33 11.27 L259.75 70.41 L267.17 0.00 L274.59 20.71 L282.01 0.00 L289.43 29.41 L296.86 0.00 L304.28 43.38 L311.70 121.99 L319.12 0.00 L326.54 25.11 L333.96 79.39 L341.38 16.37 L348.81 35.84 L356.23 0.00 L363.65 30.55 L371.07 0.00 L378.49 36.36 L385.91 7.09 L393.33 0.00 L400.75 8.70 L408.18 93.74 L415.60 77.18 L423.02 0.00 L430.44 34.31 L437.86 0.00 L445.28 0.00 L452.70 21.76 L460.13 136.70 L467.55 125.26 L474.97 0.00 L482.39 75.48 L489.81 87.92 L497.23 8.91 L504.65 68.97 L512.08 0.00 L519.50 109.68 L526.92 5.95 L534.34 111.03 L541.76 122.84 L549.18 0.00 L556.60 115.21 L564.03 98.96 L571.45 101.59 L578.87 143.19 L586.29 16.17 L593.71 139.06 L601.13 139.13 L608.55 140.83 L615.97 155.81 L623.40 12.99 L630.82 106.37 L638.24 110.19 L645.66 77.44 L653.08 110.82 L660.50 15.57 L667.92 53.40 L675.35 137.72 L682.77 116.59 L690.19 30.85 L697.61 5.44 L705.03 7.97 L712.45 121.35 L719.87 106.83 L727.30 137.24 L734.72 7.91 L742.14 35.14 L749.56 151.59 L756.98 143.62 L764.40 156.96 L771.82 15.06 L779.25 27.79 L786.67 104.09 L794.09 77.88 L801.51 107.83 L808.93 14.47 L816.35 29.56 L823.77 136.07 L831.19 115.79 L838.62 29.51 L846.04 37.06 L853.46 0.00 L860.88 107.85 L868.30 95.81 L875.72 124.64 L883.14 142.34 L890.57 0.00 L897.99 148.10 L905.41 141.63 L912.83 148.36 L920.25 155.58 L927.67 0.00 L935.09 96.31 L942.52 89.47 L949.94 102.85 L957.36 107.68 L964.78 0.00 L972.20 122.48 L979.62 93.48 L987.04 109.28 L994.47 5.88 L1001.89 0.00 L1009.31 106.16 L1016.73 96.90 L1024.15 98.91 L1031.57 126.80 L1038.99 0.00 L1046.42 70.11 L1053.84 149.51 L1061.26 137.43 L1068.68 154.07 L1076.10 0.00 L1083.52 52.17 L1090.94 102.88 L1098.36 89.40 L1105.79 108.89 L1113.21 0.00 L1120.63 46.55 L1128.05 124.54 L1135.47 100.59 L1142.89 4.40 L1150.31 71.62 L1157.74 156.93 L1165.16 153.68 L1172.58 132.07 L1180.00 143.70" transform="translate(210 980) scale(1 -1)" fill="none" stroke="#f32222" stroke-opacity=".6" stroke-width="1.5" vector-effect="non-scaling-stroke"/>
  <path d="M96 316H512M96 316V388M1504 1212H1088M1504 1212V1140" fill="none" stroke="#f32222" stroke-width="4"/>
  <g fill="#f2efe8" font-family="monospace"><text x="96" y="222" font-size="42" letter-spacing="8">POVKH LAB / CATALOG SIGNAL</text><text x="96" y="470" font-size="154" font-weight="700">PVKH-004</text><text x="96" y="1332" font-size="78" font-weight="700">OFFICE</text><text x="96" y="1406" font-size="32" letter-spacing="4" fill-opacity=".72">ALESSANDRO POVKH &amp; K/SMOKIN</text></g>
  <g fill="#f32222" font-family="monospace" font-size="30"><text x="1262" y="222">1:09</text><text x="1176" y="1406">WAVEFORM / 160</text></g>
  <text x="96" y="1530" fill="#f2efe8" fill-opacity=".45" font-family="monospace" font-size="22" letter-spacing="3">SYSTEM VISUAL · NOT RELEASE ARTWORK</text>
</svg>