<svg xmlns="http://www.w3.org/2000/svg" viewBox="0 0 1600 1600" role="img" aria-labelledby="title description">
  <title id="title">PVKH-003 RED 2 signal visual</title>
  <desc id="description">Catalog signal generated from the track waveform. This is not official release artwork.</desc>
  <defs><pattern id="grid" width="48" height="48" patternUnits="userSpaceOnUse"><path d="M48 0H0V48" fill="none" stroke="#f2efe8" stroke-opacity=".055"/></pattern></defs>
  <rect width="1600" height="1600" fill="#080808"/><rect width="1600" height="1600" fill="url(#grid)"/>
  <g fill="none" stroke="#f2efe8" stroke-opacity=".28"><path d="M96 90v36"/><path d="M213 90v16"/><path d="M330 90v16"/><path d="M447 90v16"/><path d="M564 90v36"/><path d="M681 90v16"/><path d="M798 90v16"/><path d="M915 90v16"/><path d="M1032 90v36"/><path d="M1149 90v16"/><path d="M1266 90v16"/><path d="M1383 90v16"/><path d="M1500 90v36"/><path d="M96 126H1504M96 1472H1504"/></g>
  <path d="M0.00 153.73 L7.42 154.16 L14.84 153.31 L22.26 152.71 L29.69 150.18 L37.11 154.62 L44.53 156.82 L51.95 156.04 L59.37 157.28 L66.79 152.37 L74.21 150.67 L81.64 155.26 L89.06 152.08 L96.48 153.34 L103.90 155.69 L111.32 153.07 L118.74 149.26 L126.16 108.09 L133.58 94.74 L141.01 104.35 L148.43 119.44 L155.85 124.41 L163.27 78.27 L170.69 87.16 L178.11 106.79 L185.53 0.00 L192.96 0.49 L200.38 86.34 L207.80 103.26 L215.22 96.05 L222.64 83.98 L230.06 79.75 L237.48 75.68 L244.91 94.71 L252.33 101.23 L259.75 0.00 L267.17 28.25 L274.59 130.56 L282.01 126.94 L289.43 123.78 L296.86 128.45 L304.28 132.97 L311.70 105.38 L319.12 0.00 L326.54 52.50 L333.96 121.50 L341.38 122.82 L348.81 133.84 L356.23 127.92 L363.65 132.23 L371.07 139.25 L378.49 155.57 L385.91 0.00 L393.33 40.31 L400.75 140.27 L408.18 123.96 L415.60 126.38 L423.02 133.40 L430.44 129.20 L437.86 126.79 L445.28 0.00 L452.70 0.00 L460.13 28.81 L467.55 129.10 L474.97 130.97 L482.39 135.57 L489.81 125.27 L497.23 137.48 L504.65 0.00 L512.08 0.27 L519.50 7.97 L526.92 32.74 L534.34 130.29 L541.76 132.04 L549.18 131.73 L556.60 123.27 L564.03 128.18 L571.45 0.00 L578.87 0.00 L586.29 8.60 L593.71 130.08 L601.13 124.29 L608.55 122.01 L615.97 111.89 L623.40 108.09 L630.82 112.47 L638.24 136.99 L645.66 0.00 L653.08 0.00 L660.50 147.80 L667.92 128.38 L675.35 13.55 L682.77 133.86 L690.19 128.40 L697.61 134.32 L705.03 126.02 L712.45 0.00 L719.87 0.00 L727.30 122.35 L734.72 16.93 L742.14 2.41 L749.56 115.14 L756.98 150.42 L764.40 0.00 L771.82 0.00 L779.25 96.14 L786.67 101.15 L794.09 140.90 L801.51 142.17 L808.93 122.35 L816.35 115.77 L823.77 123.81 L831.19 119.70 L838.62 0.00 L846.04 0.00 L853.46 130.27 L860.88 94.94 L868.30 3.72 L875.72 90.42 L883.14 83.10 L890.57 103.46 L897.99 0.00 L905.41 0.00 L912.83 4.81 L920.25 102.15 L927.67 118.41 L935.09 0.00 L942.52 73.66 L949.94 84.20 L957.36 82.82 L964.78 0.00 L972.20 0.00 L979.62 91.56 L987.04 93.99 L994.47 18.50 L1001.89 8.30 L1009.31 95.23 L1016.73 134.03 L1024.15 0.00 L1031.57 0.00 L1038.99 0.00 L1046.42 120.50 L1053.84 103.19 L1061.26 0.63 L1068.68 116.65 L1076.10 116.11 L1083.52 121.69 L1090.94 115.74 L1098.36 0.00 L1105.79 0.00 L1113.21 127.23 L1120.63 94.91 L1128.05 0.70 L1135.47 94.62 L1142.89 84.80 L1150.31 0.00 L1157.74 0.00 L1165.16 0.00 L1172.58 154.80 L1180.00 169.98" transform="translate(210 640)" fill="none" stroke="#f2efe8" stroke-width="3" vector-effect="non-scaling-stroke"/>
  <path d="M0.00 153.73 L7.42 154.16 L14.84 153.31 L22.26 152.71 L29.69 150.18 L37.11 154.62 L44.53 156.82 L51.95 156.04 L59.37 157.28 L66.79 152.37 L74.21 150.67 L81.64 155.26 L89.06 152.08 L96.48 153.34 L103.90 155.69 L111.32 153.07 L118.74 149.26 L126.16 108.09 L133.58 94.74 L141.01 104.35 L148.43 119.44 L155.85 124.41 L163.27 78.27 L170.69 87.16 L178.11 106.79 L185.53 0.00 L192.96 0.49 L200.38 86.34 L207.80 103.26 L215.22 96.05 L222.64 83.98 L230.06 79.75 L237.48 75.68 L244.91 94.71 L252.33 101.23 L259.75 0.00 L267.17 28.25 L274.59 130.56 L282.01 126.94 L289.43 123.78 L296.86 128.45 L304.28 132.97 L311.70 105.38 L319.12 0.00 L326.54 52.50 L333.96 121.50 L341.38 122.82 L348.81 133.84 L356.23 127.92 L363.65 132.23 L371.07 139.25 L378.49 155.57 L385.91 0.00 L393.33 40.31 L400.75 140.27 L408.18 123.96 L415.60 126.38 L423.02 133.40 L430.44 129.20 L437.86 126.79 L445.28 0.00 L452.70 0.00 L460.13 28.81 L467.55 129.10 L474.97 130.97 L482.39 135.57 L489.81 125.27 L497.23 137.48 L504.65 0.00 L512.08 0.27 L519.50 7.97 L526.92 32.74 L534.34 130.29 L541.76 132.04 L549.18 131.73 L556.60 123.27 L564.03 128.18 L571.45 0.00 L578.87 0.00 L586.29 8.60 L593.71 130.08 L601.13 124.29 L608.55 122.01 L615.97 111.89 L623.40 108.09 L630.82 112.47 L638.24 136.99 L645.66 0.00 L653.08 0.00 L660.50 147.80 L667.92 128.38 L675.35 13.55 L682.77 133.86 L690.19 128.40 L697.61 134.32 L705.03 126.02 L712.45 0.00 L719.87 0.00 L727.30 122.35 L734.72 16.93 L742.14 2.41 L749.56 115.14 L756.98 150.42 L764.40 0.00 L771.82 0.00 L779.25 96.14 L786.67 101.15 L794.09 140.90 L801.51 142.17 L808.93 122.35 L816.35 115.77 L823.77 123.81 L831.19 119.70 L838.62 0.00 L846.04 0.00 L853.46 130.27 L860.88 94.94 L868.30 3.72 L875.72 90.42 L883.14 83.10 L890.57 103.46 L897.99 0.00 L905.41 0.00 L912.83 4.81 L920.25 102.15 L927.67 118.41 L935.09 0.00 L942.52 73.66 L949.94 84.20 L957.36 82.82 L964.78 0.00 L972.20 0.00 L979.62 91.56 L987.04 93.99 L994.47 18.50 L1001.89 8.30 L1009.31 95.23 L1016.73 134.03 L1024.15 0.00 L1031.57 0.00 L1038.99 0.00 L1046.42 120.50 L1053.84 103.19 L1061.26 0.63 L1068.68 116.65 L1076.10 116.11 L1083.52 121.69 L1090.94 115.74 L1098.36 0.00 L1105.79 0.00 L1113.21 127.23 L1120.63 94.91 L1128.05 0.70 L1135.47 94.62 L1142.89 84.80 L1150.31 0.00 L1157.74 0.00 L1165.16 0.00 L1172.58 154.80 L1180.00 169.98" transform="translate(210 980) scale(1 -1)" fill="none" stroke="#f32222" stroke-opacity=".6" stroke-width="1.5" vector-effect="non-scaling-stroke"/>
  <path d="M96 316H512M96 316V388M1504 1212H1088M1504 1212V1140" fill="none" stroke="#f32222" stroke-width="4"/>
  <g fill="#f2efe8" font-family="monospace"><text x="96" y="222" font-size="42" letter-spacing="8">POVKH LAB / CATALOG SIGNAL</text><text x="96" y="470" font-size="154" font-weight="700">PVKH-003</text><text x="96" y="1332" font-size="78" font-weight="700">RED 2</text><text x="96" y="1406" font-size="32" letter-spacing="4" fill-opacity=".72">ALESSANDRO POVKH &amp; K/SMOKIN</text></g>
  <g fill="#f32222" font-family="monospace" font-size="30"><text x="1262" y="222">2:05</text><text x="1176" y="1406">WAVEFORM / 160</text></g>
  <text x="96" y="1530" fill="#f2efe8" fill-opacity=".45" font-family="monospace" font-size="22" letter-spacing="3">SYSTEM VISUAL · NOT RELEASE ARTWORK</text>
</svg>