<svg xmlns="http://www.w3.org/2000/svg" viewBox="0 0 1600 1600" role="img" aria-labelledby="title description">
  <title id="title">PVKH-011 DREAMULATOR signal visual</title>
  <desc id="description">Catalog signal generated from the track waveform. This is not official release artwork.</desc>
  <defs><pattern id="grid" width="48" height="48" patternUnits="userSpaceOnUse"><path d="M48 0H0V48" fill="none" stroke="#f2efe8" stroke-opacity=".055"/></pattern></defs>
  <rect width="1600" height="1600" fill="#080808"/><rect width="1600" height="1600" fill="url(#grid)"/>
  <g fill="none" stroke="#f2efe8" stroke-opacity=".28"><path d="M96 90v36"/><path d="M213 90v16"/><path d="M330 90v16"/><path d="M447 90v16"/><path d="M564 90v36"/><path d="M681 90v16"/><path d="M798 90v16"/><path d="M915 90v16"/><path d="M1032 90v36"/><path d="M1149 90v16"/><path d="M1266 90v16"/><path d="M1383 90v16"/><path d="M1500 90v36"/><path d="M96 126H1504M96 1472H1504"/></g>
  <path d="M0.00 157.78 L7.42 159.29 L14.84 159.43 L22.26 159.38 L29.69 162.26 L37.11 160.33 L44.53 159.75 L51.95 163.12 L59.37 160.06 L66.79 159.34 L74.21 159.38 L81.64 160.99 L89.06 159.61 L96.48 163.44 L103.90 167.43 L111.32 167.47 L118.74 167.96 L126.16 146.85 L133.58 146.86 L141.01 145.96 L148.43 146.76 L155.85 147.15 L163.27 153.48 L170.69 146.74 L178.11 146.88 L185.53 146.00 L192.96 146.93 L200.38 146.85 L207.80 146.37 L215.22 155.24 L222.64 146.00 L230.06 146.64 L237.48 150.37 L244.91 146.54 L252.33 146.83 L259.75 146.64 L267.17 146.01 L274.59 149.92 L282.01 146.61 L289.43 152.22 L296.86 146.78 L304.28 146.68 L311.70 169.05 L319.12 164.63 L326.54 139.20 L333.96 127.36 L341.38 139.31 L348.81 128.67 L356.23 128.98 L363.65 127.98 L371.07 125.94 L378.49 137.09 L385.91 123.28 L393.33 138.77 L400.75 127.75 L408.18 131.21 L415.60 128.50 L423.02 125.78 L430.44 136.32 L437.86 128.08 L445.28 138.79 L452.70 127.25 L460.13 125.70 L467.55 125.32 L474.97 128.86 L482.39 137.17 L489.81 123.78 L497.23 146.81 L504.65 127.21 L512.08 129.91 L519.50 152.29 L526.92 130.42 L534.34 134.66 L541.76 121.40 L549.18 119.22 L556.60 129.98 L564.03 124.42 L571.45 116.04 L578.87 118.23 L586.29 118.61 L593.71 124.58 L601.13 116.03 L608.55 122.91 L615.97 126.39 L623.40 117.79 L630.82 122.37 L638.24 127.11 L645.66 121.23 L653.08 119.34 L660.50 130.13 L667.92 119.99 L675.35 118.86 L682.77 116.14 L690.19 119.32 L697.61 126.84 L705.03 116.25 L712.45 123.22 L719.87 117.35 L727.30 113.51 L734.72 116.06 L742.14 119.15 L749.56 120.77 L756.98 120.60 L764.40 126.33 L771.82 122.16 L779.25 116.52 L786.67 115.92 L794.09 129.27 L801.51 126.11 L808.93 118.42 L816.35 122.74 L823.77 126.06 L831.19 116.09 L838.62 118.75 L846.04 130.49 L853.46 115.77 L860.88 120.62 L868.30 130.64 L875.72 118.44 L883.14 116.82 L890.57 113.12 L897.99 125.20 L905.41 125.09 L912.83 115.70 L920.25 131.17 L927.67 126.82 L935.09 116.23 L942.52 123.15 L949.94 129.12 L957.36 124.53 L964.78 119.63 L972.20 131.31 L979.62 123.78 L987.04 119.71 L994.47 122.01 L1001.89 127.06 L1009.31 123.74 L1016.73 127.70 L1024.15 129.86 L1031.57 127.55 L1038.99 122.71 L1046.42 124.90 L1053.84 129.37 L1061.26 120.67 L1068.68 127.74 L1076.10 132.57 L1083.52 124.07 L1090.94 121.87 L1098.36 124.66 L1105.79 127.67 L1113.21 119.34 L1120.63 125.58 L1128.05 134.76 L1135.47 128.30 L1142.89 120.26 L1150.31 124.03 L1157.74 162.54 L1165.16 165.29 L1172.58 160.43 L1180.00 169.46" transform="translate(210 640)" fill="none" stroke="#f2efe8" stroke-width="3" vector-effect="non-scaling-stroke"/>
  <path d="M0.00 157.78 L7.42 159.29 L14.84 159.43 L22.26 159.38 L29.69 162.26 L37.11 160.33 L44.53 159.75 L51.95 163.12 L59.37 160.06 L66.79 159.34 L74.21 159.38 L81.64 160.99 L89.06 159.61 L96.48 163.44 L103.90 167.43 L111.32 167.47 L118.74 167.96 L126.16 146.85 L133.58 146.86 L141.01 145.96 L148.43 146.76 L155.85 147.15 L163.27 153.48 L170.69 146.74 L178.11 146.88 L185.53 146.00 L192.96 146.93 L200.38 146.85 L207.80 146.37 L215.22 155.24 L222.64 146.00 L230.06 146.64 L237.48 150.37 L244.91 146.54 L252.33 146.83 L259.75 146.64 L267.17 146.01 L274.59 149.92 L282.01 146.61 L289.43 152.22 L296.86 146.78 L304.28 146.68 L311.70 169.05 L319.12 164.63 L326.54 139.20 L333.96 127.36 L341.38 139.31 L348.81 128.67 L356.23 128.98 L363.65 127.98 L371.07 125.94 L378.49 137.09 L385.91 123.28 L393.33 138.77 L400.75 127.75 L408.18 131.21 L415.60 128.50 L423.02 125.78 L430.44 136.32 L437.86 128.08 L445.28 138.79 L452.70 127.25 L460.13 125.70 L467.55 125.32 L474.97 128.86 L482.39 137.17 L489.81 123.78 L497.23 146.81 L504.65 127.21 L512.08 129.91 L519.50 152.29 L526.92 130.42 L534.34 134.66 L541.76 121.40 L549.18 119.22 L556.60 129.98 L564.03 124.42 L571.45 116.04 L578.87 118.23 L586.29 118.61 L593.71 124.58 L601.13 116.03 L608.55 122.91 L615.97 126.39 L623.40 117.79 L630.82 122.37 L638.24 127.11 L645.66 121.23 L653.08 119.34 L660.50 130.13 L667.92 119.99 L675.35 118.86 L682.77 116.14 L690.19 119.32 L697.61 126.84 L705.03 116.25 L712.45 123.22 L719.87 117.35 L727.30 113.51 L734.72 116.06 L742.14 119.15 L749.56 120.77 L756.98 120.60 L764.40 126.33 L771.82 122.16 L779.25 116.52 L786.67 115.92 L794.09 129.27 L801.51 126.11 L808.93 118.42 L816.35 122.74 L823.77 126.06 L831.19 116.09 L838.62 118.75 L846.04 130.49 L853.46 115.77 L860.88 120.62 L868.30 130.64 L875.72 118.44 L883.14 116.82 L890.57 113.12 L897.99 125.20 L905.41 125.09 L912.83 115.70 L920.25 131.17 L927.67 126.82 L935.09 116.23 L942.52 123.15 L949.94 129.12 L957.36 124.53 L964.78 119.63 L972.20 131.31 L979.62 123.78 L987.04 119.71 L994.47 122.01 L1001.89 127.06 L1009.31 123.74 L1016.73 127.70 L1024.15 129.86 L1031.57 127.55 L1038.99 122.71 L1046.42 124.90 L1053.84 129.37 L1061.26 120.67 L1068.68 127.74 L1076.10 132.57 L1083.52 124.07 L1090.94 121.87 L1098.36 124.66 L1105.79 127.67 L1113.21 119.34 L1120.63 125.58 L1128.05 134.76 L1135.47 128.30 L1142.89 120.26 L1150.31 124.03 L1157.74 162.54 L1165.16 165.29 L1172.58 160.43 L1180.00 169.46" transform="translate(210 980) scale(1 -1)" fill="none" stroke="#f32222" stroke-opacity=".6" stroke-width="1.5" vector-effect="non-scaling-stroke"/>
  <path d="M96 316H512M96 316V388M1504 1212H1088M1504 1212V1140" fill="none" stroke="#f32222" stroke-width="4"/>
  <g fill="#f2efe8" font-family="monospace"><text x="96" y="222" font-size="42" letter-spacing="8">POVKH LAB / CATALOG SIGNAL</text><text x="96" y="470" font-size="154" font-weight="700">PVKH-011</text><text x="96" y="1332" font-size="78" font-weight="700">DREAMULATOR</text><text x="96" y="1406" font-size="32" letter-spacing="4" fill-opacity=".72">LEVO.MP3 &amp; ALESSANDRO POVKH</text></g>
  <g fill="#f32222" font-family="monospace" font-size="30"><text x="1262" y="222">1:50</text><text x="1176" y="1406">WAVEFORM / 160</text></g>
  <text x="96" y="1530" fill="#f2efe8" fill-opacity=".45" font-family="monospace" font-size="22" letter-spacing="3">SYSTEM VISUAL · NOT RELEASE ARTWORK</text>
</svg>