<svg xmlns="http://www.w3.org/2000/svg" viewBox="0 0 1600 1600" role="img" aria-labelledby="title description">
  <title id="title">PVKH-002 DICHOTOMY signal visual</title>
  <desc id="description">Catalog signal generated from the track waveform. This is not official release artwork.</desc>
  <defs><pattern id="grid" width="48" height="48" patternUnits="userSpaceOnUse"><path d="M48 0H0V48" fill="none" stroke="#f2efe8" stroke-opacity=".055"/></pattern></defs>
  <rect width="1600" height="1600" fill="#080808"/><rect width="1600" height="1600" fill="url(#grid)"/>
  <g fill="none" stroke="#f2efe8" stroke-opacity=".28"><path d="M96 90v36"/><path d="M213 90v16"/><path d="M330 90v16"/><path d="M447 90v16"/><path d="M564 90v36"/><path d="M681 90v16"/><path d="M798 90v16"/><path d="M915 90v16"/><path d="M1032 90v36"/><path d="M1149 90v16"/><path d="M1266 90v16"/><path d="M1383 90v16"/><path d="M1500 90v36"/><path d="M96 126H1504M96 1472H1504"/></g>
  <path d="M0.00 137.55 L7.42 133.04 L14.84 135.29 L22.26 142.02 L29.69 132.14 L37.11 124.15 L44.53 124.08 L51.95 78.52 L59.37 67.06 L66.79 76.89 L74.21 71.60 L81.64 61.06 L89.06 70.67 L96.48 62.08 L103.90 73.59 L111.32 52.09 L118.74 59.40 L126.16 55.15 L133.58 67.64 L141.01 62.19 L148.43 63.85 L155.85 68.31 L163.27 62.70 L170.69 63.63 L178.11 69.87 L185.53 68.25 L192.96 65.82 L200.38 87.70 L207.80 92.45 L215.22 92.73 L222.64 84.69 L230.06 78.03 L237.48 70.16 L244.91 73.76 L252.33 65.89 L259.75 60.04 L267.17 62.34 L274.59 71.11 L282.01 57.10 L289.43 61.39 L296.86 54.18 L304.28 63.70 L311.70 59.89 L319.12 63.09 L326.54 52.38 L333.96 64.74 L341.38 60.98 L348.81 61.74 L356.23 55.56 L363.65 61.83 L371.07 50.95 L378.49 66.71 L385.91 80.04 L393.33 34.82 L400.75 44.03 L408.18 43.23 L415.60 41.99 L423.02 44.64 L430.44 47.34 L437.86 43.13 L445.28 43.91 L452.70 41.38 L460.13 41.99 L467.55 45.41 L474.97 48.53 L482.39 46.85 L489.81 39.83 L497.23 44.68 L504.65 44.57 L512.08 40.65 L519.50 41.28 L526.92 45.63 L534.34 43.37 L541.76 41.58 L549.18 42.91 L556.60 47.57 L564.03 95.61 L571.45 85.66 L578.87 95.66 L586.29 114.97 L593.71 114.82 L601.13 121.35 L608.55 119.65 L615.97 126.39 L623.40 120.22 L630.82 126.02 L638.24 114.82 L645.66 102.92 L653.08 106.96 L660.50 107.42 L667.92 110.26 L675.35 101.15 L682.77 109.26 L690.19 98.96 L697.61 98.28 L705.03 95.20 L712.45 106.59 L719.87 91.55 L727.30 90.56 L734.72 93.25 L742.14 95.23 L749.56 95.06 L756.98 91.75 L764.40 83.86 L771.82 86.48 L779.25 78.34 L786.67 72.84 L794.09 63.44 L801.51 68.14 L808.93 67.59 L816.35 55.39 L823.77 62.92 L831.19 62.90 L838.62 77.69 L846.04 91.95 L853.46 92.16 L860.88 108.02 L868.30 73.10 L875.72 40.09 L883.14 42.98 L890.57 40.95 L897.99 43.88 L905.41 42.89 L912.83 47.33 L920.25 66.08 L927.67 45.15 L935.09 45.25 L942.52 43.71 L949.94 44.86 L957.36 37.23 L964.78 42.14 L972.20 49.72 L979.62 48.60 L987.04 83.59 L994.47 70.65 L1001.89 74.85 L1009.31 96.66 L1016.73 130.90 L1024.15 129.27 L1031.57 133.21 L1038.99 120.63 L1046.42 131.41 L1053.84 119.03 L1061.26 129.17 L1068.68 124.49 L1076.10 127.75 L1083.52 129.64 L1090.94 127.84 L1098.36 121.52 L1105.79 117.79 L1113.21 117.18 L1120.63 128.89 L1128.05 124.17 L1135.47 137.43 L1142.89 137.46 L1150.31 147.68 L1157.74 148.21 L1165.16 153.68 L1172.58 167.23 L1180.00 169.76" transform="translate(210 640)" fill="none" stroke="#f2efe8" stroke-width="3" vector-effect="non-scaling-stroke"/>
  <path d="M0.00 137.55 L7.42 133.04 L14.84 135.29 L22.26 142.02 L29.69 132.14 L37.11 124.15 L44.53 124.08 L51.95 78.52 L59.37 67.06 L66.79 76.89 L74.21 71.60 L81.64 61.06 L89.06 70.67 L96.48 62.08 L103.90 73.59 L111.32 52.09 L118.74 59.40 L126.16 55.15 L133.58 67.64 L141.01 62.19 L148.43 63.85 L155.85 68.31 L163.27 62.70 L170.69 63.63 L178.11 69.87 L185.53 68.25 L192.96 65.82 L200.38 87.70 L207.80 92.45 L215.22 92.73 L222.64 84.69 L230.06 78.03 L237.48 70.16 L244.91 73.76 L252.33 65.89 L259.75 60.04 L267.17 62.34 L274.59 71.11 L282.01 57.10 L289.43 61.39 L296.86 54.18 L304.28 63.70 L311.70 59.89 L319.12 63.09 L326.54 52.38 L333.96 64.74 L341.38 60.98 L348.81 61.74 L356.23 55.56 L363.65 61.83 L371.07 50.95 L378.49 66.71 L385.91 80.04 L393.33 34.82 L400.75 44.03 L408.18 43.23 L415.60 41.99 L423.02 44.64 L430.44 47.34 L437.86 43.13 L445.28 43.91 L452.70 41.38 L460.13 41.99 L467.55 45.41 L474.97 48.53 L482.39 46.85 L489.81 39.83 L497.23 44.68 L504.65 44.57 L512.08 40.65 L519.50 41.28 L526.92 45.63 L534.34 43.37 L541.76 41.58 L549.18 42.91 L556.60 47.57 L564.03 95.61 L571.45 85.66 L578.87 95.66 L586.29 114.97 L593.71 114.82 L601.13 121.35 L608.55 119.65 L615.97 126.39 L623.40 120.22 L630.82 126.02 L638.24 114.82 L645.66 102.92 L653.08 106.96 L660.50 107.42 L667.92 110.26 L675.35 101.15 L682.77 109.26 L690.19 98.96 L697.61 98.28 L705.03 95.20 L712.45 106.59 L719.87 91.55 L727.30 90.56 L734.72 93.25 L742.14 95.23 L749.56 95.06 L756.98 91.75 L764.40 83.86 L771.82 86.48 L779.25 78.34 L786.67 72.84 L794.09 63.44 L801.51 68.14 L808.93 67.59 L816.35 55.39 L823.77 62.92 L831.19 62.90 L838.62 77.69 L846.04 91.95 L853.46 92.16 L860.88 108.02 L868.30 73.10 L875.72 40.09 L883.14 42.98 L890.57 40.95 L897.99 43.88 L905.41 42.89 L912.83 47.33 L920.25 66.08 L927.67 45.15 L935.09 45.25 L942.52 43.71 L949.94 44.86 L957.36 37.23 L964.78 42.14 L972.20 49.72 L979.62 48.60 L987.04 83.59 L994.47 70.65 L1001.89 74.85 L1009.31 96.66 L1016.73 130.90 L1024.15 129.27 L1031.57 133.21 L1038.99 120.63 L1046.42 131.41 L1053.84 119.03 L1061.26 129.17 L1068.68 124.49 L1076.10 127.75 L1083.52 129.64 L1090.94 127.84 L1098.36 121.52 L1105.79 117.79 L1113.21 117.18 L1120.63 128.89 L1128.05 124.17 L1135.47 137.43 L1142.89 137.46 L1150.31 147.68 L1157.74 148.21 L1165.16 153.68 L1172.58 167.23 L1180.00 169.76" transform="translate(210 980) scale(1 -1)" fill="none" stroke="#f32222" stroke-opacity=".6" stroke-width="1.5" vector-effect="non-scaling-stroke"/>
  <path d="M96 316H512M96 316V388M1504 1212H1088M1504 1212V1140" fill="none" stroke="#f32222" stroke-width="4"/>
  <g fill="#f2efe8" font-family="monospace"><text x="96" y="222" font-size="42" letter-spacing="8">POVKH LAB / CATALOG SIGNAL</text><text x="96" y="470" font-size="154" font-weight="700">PVKH-002</text><text x="96" y="1332" font-size="78" font-weight="700">DICHOTOMY</text><text x="96" y="1406" font-size="32" letter-spacing="4" fill-opacity=".72">ALESSANDRO POVKH</text></g>
  <g fill="#f32222" font-family="monospace" font-size="30"><text x="1262" y="222">6:44</text><text x="1176" y="1406">WAVEFORM / 160</text></g>
  <text x="96" y="1530" fill="#f2efe8" fill-opacity=".45" font-family="monospace" font-size="22" letter-spacing="3">SYSTEM VISUAL · NOT RELEASE ARTWORK</text>
</svg>