<svg xmlns="http://www.w3.org/2000/svg" viewBox="0 0 1600 1600" role="img" aria-labelledby="title description">
  <title id="title">PVKH-001 OVERDOSE signal visual</title>
  <desc id="description">Catalog signal generated from the track waveform. This is not official release artwork.</desc>
  <defs><pattern id="grid" width="48" height="48" patternUnits="userSpaceOnUse"><path d="M48 0H0V48" fill="none" stroke="#f2efe8" stroke-opacity=".055"/></pattern></defs>
  <rect width="1600" height="1600" fill="#080808"/><rect width="1600" height="1600" fill="url(#grid)"/>
  <g fill="none" stroke="#f2efe8" stroke-opacity=".28"><path d="M96 90v36"/><path d="M213 90v16"/><path d="M330 90v16"/><path d="M447 90v16"/><path d="M564 90v36"/><path d="M681 90v16"/><path d="M798 90v16"/><path d="M915 90v16"/><path d="M1032 90v36"/><path d="M1149 90v16"/><path d="M1266 90v16"/><path d="M1383 90v16"/><path d="M1500 90v36"/><path d="M96 126H1504M96 1472H1504"/></g>
  <path d="M0.00 164.56 L7.42 161.82 L14.84 160.92 L22.26 159.87 L29.69 156.28 L37.11 158.22 L44.53 158.69 L51.95 158.53 L59.37 155.33 L66.79 152.41 L74.21 149.19 L81.64 152.42 L89.06 151.45 L96.48 154.89 L103.90 154.17 L111.32 155.26 L118.74 62.29 L126.16 46.95 L133.58 55.37 L141.01 49.89 L148.43 107.83 L155.85 98.94 L163.27 118.37 L170.69 126.16 L178.11 57.39 L185.53 51.77 L192.96 59.36 L200.38 58.89 L207.80 103.75 L215.22 110.42 L222.64 67.61 L230.06 136.66 L237.48 138.18 L244.91 117.01 L252.33 125.58 L259.75 124.53 L267.17 121.89 L274.59 126.99 L282.01 120.28 L289.43 112.23 L296.86 96.14 L304.28 83.45 L311.70 125.15 L319.12 121.55 L326.54 90.92 L333.96 86.61 L341.38 49.38 L348.81 22.24 L356.23 0.00 L363.65 0.00 L371.07 15.56 L378.49 0.00 L385.91 0.00 L393.33 18.12 L400.75 105.64 L408.18 17.32 L415.60 0.00 L423.02 0.00 L430.44 18.92 L437.86 0.00 L445.28 0.00 L452.70 30.06 L460.13 8.35 L467.55 5.46 L474.97 0.00 L482.39 0.00 L489.81 0.00 L497.23 18.33 L504.65 0.00 L512.08 0.00 L519.50 0.00 L526.92 10.56 L534.34 0.00 L541.76 0.00 L549.18 0.00 L556.60 0.00 L564.03 0.00 L571.45 0.00 L578.87 0.00 L586.29 0.00 L593.71 46.66 L601.13 48.64 L608.55 55.61 L615.97 45.24 L623.40 114.92 L630.82 128.91 L638.24 126.58 L645.66 150.55 L653.08 56.41 L660.50 57.55 L667.92 47.91 L675.35 45.13 L682.77 118.80 L690.19 128.67 L697.61 128.38 L705.03 117.13 L712.45 0.00 L719.87 0.00 L727.30 15.93 L734.72 0.00 L742.14 0.00 L749.56 46.55 L756.98 115.26 L764.40 24.45 L771.82 0.00 L779.25 0.00 L786.67 17.36 L794.09 0.00 L801.51 0.00 L808.93 26.69 L816.35 14.94 L823.77 0.00 L831.19 0.00 L838.62 0.00 L846.04 0.00 L853.46 10.90 L860.88 0.00 L868.30 0.00 L875.72 0.00 L883.14 2.09 L890.57 0.00 L897.99 0.00 L905.41 0.00 L912.83 0.00 L920.25 0.00 L927.67 0.00 L935.09 0.00 L942.52 0.00 L949.94 0.00 L957.36 0.00 L964.78 9.28 L972.20 19.82 L979.62 33.24 L987.04 83.18 L994.47 110.64 L1001.89 15.78 L1009.31 0.00 L1016.73 0.00 L1024.15 1.63 L1031.57 8.30 L1038.99 29.55 L1046.42 64.02 L1053.84 0.00 L1061.26 32.56 L1068.68 51.25 L1076.10 46.51 L1083.52 50.37 L1090.94 48.47 L1098.36 123.52 L1105.79 126.29 L1113.21 128.94 L1120.63 135.44 L1128.05 61.88 L1135.47 51.15 L1142.89 55.40 L1150.31 61.37 L1157.74 135.68 L1165.16 132.85 L1172.58 130.56 L1180.00 160.11" transform="translate(210 640)" fill="none" stroke="#f2efe8" stroke-width="3" vector-effect="non-scaling-stroke"/>
  <path d="M0.00 164.56 L7.42 161.82 L14.84 160.92 L22.26 159.87 L29.69 156.28 L37.11 158.22 L44.53 158.69 L51.95 158.53 L59.37 155.33 L66.79 152.41 L74.21 149.19 L81.64 152.42 L89.06 151.45 L96.48 154.89 L103.90 154.17 L111.32 155.26 L118.74 62.29 L126.16 46.95 L133.58 55.37 L141.01 49.89 L148.43 107.83 L155.85 98.94 L163.27 118.37 L170.69 126.16 L178.11 57.39 L185.53 51.77 L192.96 59.36 L200.38 58.89 L207.80 103.75 L215.22 110.42 L222.64 67.61 L230.06 136.66 L237.48 138.18 L244.91 117.01 L252.33 125.58 L259.75 124.53 L267.17 121.89 L274.59 126.99 L282.01 120.28 L289.43 112.23 L296.86 96.14 L304.28 83.45 L311.70 125.15 L319.12 121.55 L326.54 90.92 L333.96 86.61 L341.38 49.38 L348.81 22.24 L356.23 0.00 L363.65 0.00 L371.07 15.56 L378.49 0.00 L385.91 0.00 L393.33 18.12 L400.75 105.64 L408.18 17.32 L415.60 0.00 L423.02 0.00 L430.44 18.92 L437.86 0.00 L445.28 0.00 L452.70 30.06 L460.13 8.35 L467.55 5.46 L474.97 0.00 L482.39 0.00 L489.81 0.00 L497.23 18.33 L504.65 0.00 L512.08 0.00 L519.50 0.00 L526.92 10.56 L534.34 0.00 L541.76 0.00 L549.18 0.00 L556.60 0.00 L564.03 0.00 L571.45 0.00 L578.87 0.00 L586.29 0.00 L593.71 46.66 L601.13 48.64 L608.55 55.61 L615.97 45.24 L623.40 114.92 L630.82 128.91 L638.24 126.58 L645.66 150.55 L653.08 56.41 L660.50 57.55 L667.92 47.91 L675.35 45.13 L682.77 118.80 L690.19 128.67 L697.61 128.38 L705.03 117.13 L712.45 0.00 L719.87 0.00 L727.30 15.93 L734.72 0.00 L742.14 0.00 L749.56 46.55 L756.98 115.26 L764.40 24.45 L771.82 0.00 L779.25 0.00 L786.67 17.36 L794.09 0.00 L801.51 0.00 L808.93 26.69 L816.35 14.94 L823.77 0.00 L831.19 0.00 L838.62 0.00 L846.04 0.00 L853.46 10.90 L860.88 0.00 L868.30 0.00 L875.72 0.00 L883.14 2.09 L890.57 0.00 L897.99 0.00 L905.41 0.00 L912.83 0.00 L920.25 0.00 L927.67 0.00 L935.09 0.00 L942.52 0.00 L949.94 0.00 L957.36 0.00 L964.78 9.28 L972.20 19.82 L979.62 33.24 L987.04 83.18 L994.47 110.64 L1001.89 15.78 L1009.31 0.00 L1016.73 0.00 L1024.15 1.63 L1031.57 8.30 L1038.99 29.55 L1046.42 64.02 L1053.84 0.00 L1061.26 32.56 L1068.68 51.25 L1076.10 46.51 L1083.52 50.37 L1090.94 48.47 L1098.36 123.52 L1105.79 126.29 L1113.21 128.94 L1120.63 135.44 L1128.05 61.88 L1135.47 51.15 L1142.89 55.40 L1150.31 61.37 L1157.74 135.68 L1165.16 132.85 L1172.58 130.56 L1180.00 160.11" transform="translate(210 980) scale(1 -1)" fill="none" stroke="#f32222" stroke-opacity=".6" stroke-width="1.5" vector-effect="non-scaling-stroke"/>
  <path d="M96 316H512M96 316V388M1504 1212H1088M1504 1212V1140" fill="none" stroke="#f32222" stroke-width="4"/>
  <g fill="#f2efe8" font-family="monospace"><text x="96" y="222" font-size="42" letter-spacing="8">POVKH LAB / CATALOG SIGNAL</text><text x="96" y="470" font-size="154" font-weight="700">PVKH-001</text><text x="96" y="1332" font-size="78" font-weight="700">OVERDOSE</text><text x="96" y="1406" font-size="32" letter-spacing="4" fill-opacity=".72">DEV &amp; ALESSANDRO POVKH</text></g>
  <g fill="#f32222" font-family="monospace" font-size="30"><text x="1262" y="222">2:46</text><text x="1176" y="1406">WAVEFORM / 160</text></g>
  <text x="96" y="1530" fill="#f2efe8" fill-opacity=".45" font-family="monospace" font-size="22" letter-spacing="3">SYSTEM VISUAL · NOT RELEASE ARTWORK</text>
</svg>