<svg xmlns="http://www.w3.org/2000/svg" viewBox="0 0 1600 1600" role="img" aria-labelledby="title description">
  <title id="title">PVKH-005 AZIMUTH signal visual</title>
  <desc id="description">Catalog signal generated from the track waveform. This is not official release artwork.</desc>
  <defs><pattern id="grid" width="48" height="48" patternUnits="userSpaceOnUse"><path d="M48 0H0V48" fill="none" stroke="#f2efe8" stroke-opacity=".055"/></pattern></defs>
  <rect width="1600" height="1600" fill="#080808"/><rect width="1600" height="1600" fill="url(#grid)"/>
  <g fill="none" stroke="#f2efe8" stroke-opacity=".28"><path d="M96 90v36"/><path d="M213 90v16"/><path d="M330 90v16"/><path d="M447 90v16"/><path d="M564 90v36"/><path d="M681 90v16"/><path d="M798 90v16"/><path d="M915 90v16"/><path d="M1032 90v36"/><path d="M1149 90v16"/><path d="M1266 90v16"/><path d="M1383 90v16"/><path d="M1500 90v36"/><path d="M96 126H1504M96 1472H1504"/></g>
  <path d="M0.00 169.91 L7.42 169.54 L14.84 168.83 L22.26 168.06 L29.69 166.89 L37.11 166.84 L44.53 163.39 L51.95 162.21 L59.37 160.36 L66.79 159.97 L74.21 155.82 L81.64 151.59 L89.06 147.90 L96.48 142.75 L103.90 144.47 L111.32 133.94 L118.74 136.31 L126.16 126.21 L133.58 126.72 L141.01 118.61 L148.43 104.14 L155.85 0.00 L163.27 0.00 L170.69 0.00 L178.11 0.00 L185.53 2.72 L192.96 0.00 L200.38 0.00 L207.80 0.00 L215.22 0.00 L222.64 0.00 L230.06 0.00 L237.48 0.00 L244.91 0.00 L252.33 0.00 L259.75 0.00 L267.17 13.48 L274.59 0.00 L282.01 0.00 L289.43 0.00 L296.86 0.00 L304.28 42.84 L311.70 0.00 L319.12 0.00 L326.54 0.00 L333.96 0.00 L341.38 0.00 L348.81 2.36 L356.23 0.00 L363.65 0.00 L371.07 0.00 L378.49 0.00 L385.91 23.43 L393.33 17.78 L400.75 0.00 L408.18 0.00 L415.60 0.00 L423.02 0.00 L430.44 9.40 L437.86 0.00 L445.28 0.00 L452.70 0.00 L460.13 0.00 L467.55 0.00 L474.97 0.00 L482.39 0.00 L489.81 26.06 L497.23 0.00 L504.65 0.00 L512.08 0.00 L519.50 0.00 L526.92 65.48 L534.34 38.61 L541.76 0.00 L549.18 0.00 L556.60 0.00 L564.03 13.84 L571.45 23.63 L578.87 0.00 L586.29 0.00 L593.71 0.00 L601.13 6.70 L608.55 57.65 L615.97 0.00 L623.40 0.00 L630.82 0.00 L638.24 0.00 L645.66 0.00 L653.08 0.00 L660.50 0.00 L667.92 0.00 L675.35 0.00 L682.77 0.00 L690.19 0.00 L697.61 0.00 L705.03 0.00 L712.45 0.00 L719.87 0.00 L727.30 0.00 L734.72 0.00 L742.14 0.00 L749.56 0.00 L756.98 0.00 L764.40 0.00 L771.82 0.00 L779.25 0.00 L786.67 0.00 L794.09 0.00 L801.51 0.00 L808.93 69.80 L816.35 0.00 L823.77 70.23 L831.19 122.11 L838.62 0.00 L846.04 106.56 L853.46 120.07 L860.88 0.00 L868.30 124.42 L875.72 0.00 L883.14 0.00 L890.57 0.00 L897.99 0.00 L905.41 0.00 L912.83 0.00 L920.25 0.00 L927.67 0.00 L935.09 0.00 L942.52 0.00 L949.94 0.00 L957.36 0.00 L964.78 0.00 L972.20 0.00 L979.62 0.00 L987.04 0.00 L994.47 0.00 L1001.89 0.00 L1009.31 0.00 L1016.73 0.00 L1024.15 0.00 L1031.57 0.00 L1038.99 0.00 L1046.42 0.00 L1053.84 0.00 L1061.26 0.00 L1068.68 36.65 L1076.10 0.00 L1083.52 0.00 L1090.94 0.00 L1098.36 0.00 L1105.79 52.63 L1113.21 0.00 L1120.63 84.25 L1128.05 79.41 L1135.47 60.52 L1142.89 155.96 L1150.31 170.00 L1157.74 78.74 L1165.16 54.94 L1172.58 59.60 L1180.00 67.12" transform="translate(210 640)" fill="none" stroke="#f2efe8" stroke-width="3" vector-effect="non-scaling-stroke"/>
  <path d="M0.00 169.91 L7.42 169.54 L14.84 168.83 L22.26 168.06 L29.69 166.89 L37.11 166.84 L44.53 163.39 L51.95 162.21 L59.37 160.36 L66.79 159.97 L74.21 155.82 L81.64 151.59 L89.06 147.90 L96.48 142.75 L103.90 144.47 L111.32 133.94 L118.74 136.31 L126.16 126.21 L133.58 126.72 L141.01 118.61 L148.43 104.14 L155.85 0.00 L163.27 0.00 L170.69 0.00 L178.11 0.00 L185.53 2.72 L192.96 0.00 L200.38 0.00 L207.80 0.00 L215.22 0.00 L222.64 0.00 L230.06 0.00 L237.48 0.00 L244.91 0.00 L252.33 0.00 L259.75 0.00 L267.17 13.48 L274.59 0.00 L282.01 0.00 L289.43 0.00 L296.86 0.00 L304.28 42.84 L311.70 0.00 L319.12 0.00 L326.54 0.00 L333.96 0.00 L341.38 0.00 L348.81 2.36 L356.23 0.00 L363.65 0.00 L371.07 0.00 L378.49 0.00 L385.91 23.43 L393.33 17.78 L400.75 0.00 L408.18 0.00 L415.60 0.00 L423.02 0.00 L430.44 9.40 L437.86 0.00 L445.28 0.00 L452.70 0.00 L460.13 0.00 L467.55 0.00 L474.97 0.00 L482.39 0.00 L489.81 26.06 L497.23 0.00 L504.65 0.00 L512.08 0.00 L519.50 0.00 L526.92 65.48 L534.34 38.61 L541.76 0.00 L549.18 0.00 L556.60 0.00 L564.03 13.84 L571.45 23.63 L578.87 0.00 L586.29 0.00 L593.71 0.00 L601.13 6.70 L608.55 57.65 L615.97 0.00 L623.40 0.00 L630.82 0.00 L638.24 0.00 L645.66 0.00 L653.08 0.00 L660.50 0.00 L667.92 0.00 L675.35 0.00 L682.77 0.00 L690.19 0.00 L697.61 0.00 L705.03 0.00 L712.45 0.00 L719.87 0.00 L727.30 0.00 L734.72 0.00 L742.14 0.00 L749.56 0.00 L756.98 0.00 L764.40 0.00 L771.82 0.00 L779.25 0.00 L786.67 0.00 L794.09 0.00 L801.51 0.00 L808.93 69.80 L816.35 0.00 L823.77 70.23 L831.19 122.11 L838.62 0.00 L846.04 106.56 L853.46 120.07 L860.88 0.00 L868.30 124.42 L875.72 0.00 L883.14 0.00 L890.57 0.00 L897.99 0.00 L905.41 0.00 L912.83 0.00 L920.25 0.00 L927.67 0.00 L935.09 0.00 L942.52 0.00 L949.94 0.00 L957.36 0.00 L964.78 0.00 L972.20 0.00 L979.62 0.00 L987.04 0.00 L994.47 0.00 L1001.89 0.00 L1009.31 0.00 L1016.73 0.00 L1024.15 0.00 L1031.57 0.00 L1038.99 0.00 L1046.42 0.00 L1053.84 0.00 L1061.26 0.00 L1068.68 36.65 L1076.10 0.00 L1083.52 0.00 L1090.94 0.00 L1098.36 0.00 L1105.79 52.63 L1113.21 0.00 L1120.63 84.25 L1128.05 79.41 L1135.47 60.52 L1142.89 155.96 L1150.31 170.00 L1157.74 78.74 L1165.16 54.94 L1172.58 59.60 L1180.00 67.12" transform="translate(210 980) scale(1 -1)" fill="none" stroke="#f32222" stroke-opacity=".6" stroke-width="1.5" vector-effect="non-scaling-stroke"/>
  <path d="M96 316H512M96 316V388M1504 1212H1088M1504 1212V1140" fill="none" stroke="#f32222" stroke-width="4"/>
  <g fill="#f2efe8" font-family="monospace"><text x="96" y="222" font-size="42" letter-spacing="8">POVKH LAB / CATALOG SIGNAL</text><text x="96" y="470" font-size="154" font-weight="700">PVKH-005</text><text x="96" y="1332" font-size="78" font-weight="700">AZIMUTH</text><text x="96" y="1406" font-size="32" letter-spacing="4" fill-opacity=".72">ALESSANDRO POVKH &amp; K/SMOKIN</text></g>
  <g fill="#f32222" font-family="monospace" font-size="30"><text x="1262" y="222">2:38</text><text x="1176" y="1406">WAVEFORM / 160</text></g>
  <text x="96" y="1530" fill="#f2efe8" fill-opacity=".45" font-family="monospace" font-size="22" letter-spacing="3">SYSTEM VISUAL · NOT RELEASE ARTWORK</text>
</svg>