<svg xmlns="http://www.w3.org/2000/svg" viewBox="0 0 1600 1600" role="img" aria-labelledby="title description">
  <title id="title">PVKH-007 OPPORTUNIST signal visual</title>
  <desc id="description">Catalog signal generated from the track waveform. This is not official release artwork.</desc>
  <defs><pattern id="grid" width="48" height="48" patternUnits="userSpaceOnUse"><path d="M48 0H0V48" fill="none" stroke="#f2efe8" stroke-opacity=".055"/></pattern></defs>
  <rect width="1600" height="1600" fill="#080808"/><rect width="1600" height="1600" fill="url(#grid)"/>
  <g fill="none" stroke="#f2efe8" stroke-opacity=".28"><path d="M96 90v36"/><path d="M213 90v16"/><path d="M330 90v16"/><path d="M447 90v16"/><path d="M564 90v36"/><path d="M681 90v16"/><path d="M798 90v16"/><path d="M915 90v16"/><path d="M1032 90v36"/><path d="M1149 90v16"/><path d="M1266 90v16"/><path d="M1383 90v16"/><path d="M1500 90v36"/><path d="M96 126H1504M96 1472H1504"/></g>
  <path d="M0.00 169.10 L7.42 167.62 L14.84 164.05 L22.26 157.37 L29.69 159.10 L37.11 160.46 L44.53 157.56 L51.95 157.50 L59.37 156.79 L66.79 157.95 L74.21 159.05 L81.64 155.82 L89.06 159.29 L96.48 157.32 L103.90 156.49 L111.32 157.01 L118.74 157.50 L126.16 158.81 L133.58 158.12 L141.01 159.73 L148.43 159.44 L155.85 160.14 L163.27 157.18 L170.69 160.09 L178.11 158.69 L185.53 155.41 L192.96 146.97 L200.38 145.15 L207.80 143.80 L215.22 135.59 L222.64 137.28 L230.06 141.27 L237.48 135.78 L244.91 139.72 L252.33 151.01 L259.75 152.00 L267.17 136.70 L274.59 139.52 L282.01 119.77 L289.43 136.88 L296.86 130.88 L304.28 138.69 L311.70 139.81 L319.12 134.49 L326.54 129.93 L333.96 138.74 L341.38 146.39 L348.81 141.34 L356.23 91.43 L363.65 72.90 L371.07 74.87 L378.49 77.54 L385.91 82.96 L393.33 64.96 L400.75 58.26 L408.18 85.42 L415.60 79.07 L423.02 87.04 L430.44 124.78 L437.86 130.27 L445.28 65.65 L452.70 66.96 L460.13 61.25 L467.55 75.11 L474.97 88.79 L482.39 72.30 L489.81 77.69 L497.23 81.36 L504.65 75.07 L512.08 90.69 L519.50 140.22 L526.92 136.54 L534.34 87.35 L541.76 62.99 L549.18 67.54 L556.60 69.77 L564.03 77.30 L571.45 70.67 L578.87 77.15 L586.29 81.52 L593.71 70.14 L601.13 83.78 L608.55 125.19 L615.97 119.90 L623.40 71.76 L630.82 69.60 L638.24 64.72 L645.66 62.00 L653.08 77.79 L660.50 73.66 L667.92 87.01 L675.35 81.89 L682.77 75.11 L690.19 102.03 L697.61 125.15 L705.03 124.19 L712.45 91.19 L719.87 92.02 L727.30 79.08 L734.72 76.04 L742.14 90.03 L749.56 74.58 L756.98 61.27 L764.40 78.98 L771.82 74.34 L779.25 85.90 L786.67 126.63 L794.09 133.26 L801.51 69.00 L808.93 70.01 L816.35 69.72 L823.77 62.75 L831.19 77.74 L838.62 76.91 L846.04 85.70 L853.46 94.06 L860.88 95.28 L868.30 99.37 L875.72 122.26 L883.14 126.87 L890.57 78.40 L897.99 86.41 L905.41 71.18 L912.83 77.64 L920.25 85.51 L927.67 83.13 L935.09 65.79 L942.52 81.99 L949.94 64.53 L957.36 92.50 L964.78 129.01 L972.20 124.53 L979.62 48.99 L987.04 67.66 L994.47 66.67 L1001.89 71.38 L1009.31 70.67 L1016.73 79.36 L1024.15 77.89 L1031.57 76.45 L1038.99 76.67 L1046.42 94.11 L1053.84 136.53 L1061.26 134.37 L1068.68 134.69 L1076.10 137.09 L1083.52 135.35 L1090.94 138.01 L1098.36 146.45 L1105.79 146.13 L1113.21 150.65 L1120.63 152.01 L1128.05 167.19 L1135.47 169.90 L1142.89 169.97 L1150.31 169.97 L1157.74 169.98 L1165.16 169.98 L1172.58 169.98 L1180.00 169.98" transform="translate(210 640)" fill="none" stroke="#f2efe8" stroke-width="3" vector-effect="non-scaling-stroke"/>
  <path d="M0.00 169.10 L7.42 167.62 L14.84 164.05 L22.26 157.37 L29.69 159.10 L37.11 160.46 L44.53 157.56 L51.95 157.50 L59.37 156.79 L66.79 157.95 L74.21 159.05 L81.64 155.82 L89.06 159.29 L96.48 157.32 L103.90 156.49 L111.32 157.01 L118.74 157.50 L126.16 158.81 L133.58 158.12 L141.01 159.73 L148.43 159.44 L155.85 160.14 L163.27 157.18 L170.69 160.09 L178.11 158.69 L185.53 155.41 L192.96 146.97 L200.38 145.15 L207.80 143.80 L215.22 135.59 L222.64 137.28 L230.06 141.27 L237.48 135.78 L244.91 139.72 L252.33 151.01 L259.75 152.00 L267.17 136.70 L274.59 139.52 L282.01 119.77 L289.43 136.88 L296.86 130.88 L304.28 138.69 L311.70 139.81 L319.12 134.49 L326.54 129.93 L333.96 138.74 L341.38 146.39 L348.81 141.34 L356.23 91.43 L363.65 72.90 L371.07 74.87 L378.49 77.54 L385.91 82.96 L393.33 64.96 L400.75 58.26 L408.18 85.42 L415.60 79.07 L423.02 87.04 L430.44 124.78 L437.86 130.27 L445.28 65.65 L452.70 66.96 L460.13 61.25 L467.55 75.11 L474.97 88.79 L482.39 72.30 L489.81 77.69 L497.23 81.36 L504.65 75.07 L512.08 90.69 L519.50 140.22 L526.92 136.54 L534.34 87.35 L541.76 62.99 L549.18 67.54 L556.60 69.77 L564.03 77.30 L571.45 70.67 L578.87 77.15 L586.29 81.52 L593.71 70.14 L601.13 83.78 L608.55 125.19 L615.97 119.90 L623.40 71.76 L630.82 69.60 L638.24 64.72 L645.66 62.00 L653.08 77.79 L660.50 73.66 L667.92 87.01 L675.35 81.89 L682.77 75.11 L690.19 102.03 L697.61 125.15 L705.03 124.19 L712.45 91.19 L719.87 92.02 L727.30 79.08 L734.72 76.04 L742.14 90.03 L749.56 74.58 L756.98 61.27 L764.40 78.98 L771.82 74.34 L779.25 85.90 L786.67 126.63 L794.09 133.26 L801.51 69.00 L808.93 70.01 L816.35 69.72 L823.77 62.75 L831.19 77.74 L838.62 76.91 L846.04 85.70 L853.46 94.06 L860.88 95.28 L868.30 99.37 L875.72 122.26 L883.14 126.87 L890.57 78.40 L897.99 86.41 L905.41 71.18 L912.83 77.64 L920.25 85.51 L927.67 83.13 L935.09 65.79 L942.52 81.99 L949.94 64.53 L957.36 92.50 L964.78 129.01 L972.20 124.53 L979.62 48.99 L987.04 67.66 L994.47 66.67 L1001.89 71.38 L1009.31 70.67 L1016.73 79.36 L1024.15 77.89 L1031.57 76.45 L1038.99 76.67 L1046.42 94.11 L1053.84 136.53 L1061.26 134.37 L1068.68 134.69 L1076.10 137.09 L1083.52 135.35 L1090.94 138.01 L1098.36 146.45 L1105.79 146.13 L1113.21 150.65 L1120.63 152.01 L1128.05 167.19 L1135.47 169.90 L1142.89 169.97 L1150.31 169.97 L1157.74 169.98 L1165.16 169.98 L1172.58 169.98 L1180.00 169.98" transform="translate(210 980) scale(1 -1)" fill="none" stroke="#f32222" stroke-opacity=".6" stroke-width="1.5" vector-effect="non-scaling-stroke"/>
  <path d="M96 316H512M96 316V388M1504 1212H1088M1504 1212V1140" fill="none" stroke="#f32222" stroke-width="4"/>
  <g fill="#f2efe8" font-family="monospace"><text x="96" y="222" font-size="42" letter-spacing="8">POVKH LAB / CATALOG SIGNAL</text><text x="96" y="470" font-size="154" font-weight="700">PVKH-007</text><text x="96" y="1332" font-size="78" font-weight="700">OPPORTUNIST</text><text x="96" y="1406" font-size="32" letter-spacing="4" fill-opacity=".72">ALESSANDRO POVKH &amp; K/SMOKIN</text></g>
  <g fill="#f32222" font-family="monospace" font-size="30"><text x="1262" y="222">1:20</text><text x="1176" y="1406">WAVEFORM / 160</text></g>
  <text x="96" y="1530" fill="#f2efe8" fill-opacity=".45" font-family="monospace" font-size="22" letter-spacing="3">SYSTEM VISUAL · NOT RELEASE ARTWORK</text>
</svg>