<svg xmlns="http://www.w3.org/2000/svg" width="1000" height="1000" viewBox="0 0 1000 1000" role="img" aria-label="POVKH LAB compact PL mark">
  <title>POVKH LAB compact PL mark</title>
  <path fill="#F2EFE7" d="M469 475Q469 411 444.5 362.0Q420 313 376.0 286.5Q332 260 274 260H218Q212 260 212 254V15Q212 8 208.0 4.0Q204 0 197 0H39Q32 0 28.0 4.0Q24 8 24 15V685Q24 692 28.0 696.0Q32 700 39 700H264Q324 700 370.5 671.5Q417 643 443.0 592.0Q469 541 469 475ZM281 471Q281 504 267.5 521.5Q254 539 231 539H218Q212 539 212 533V411Q212 405 218 405H231Q254 405 267.5 421.5Q281 438 281 471Z" transform="translate(260 520) scale(0.99792100 -0.50000000)"/>
  <path fill="#F2EFE7" d="M26 15V685Q26 692 30.0 696.0Q34 700 41 700H199Q206 700 210.0 696.0Q214 692 214 685V167Q214 161 220 161H415Q422 161 426.0 157.0Q430 153 430 146V15Q430 8 426.0 4.0Q422 0 415 0H41Q34 0 30.0 4.0Q26 8 26 15Z" transform="translate(260 910) scale(1.07623318 -0.42000000)"/>
  <rect x="260" y="548" width="480" height="34" fill="#F32222"/>
</svg>
