<svg xmlns="http://www.w3.org/2000/svg" width="1000" height="1000" viewBox="0 0 1000 1000" role="img" aria-label="POVKH LAB stacked logo">
  <title>POVKH LAB stacked logo</title>
  <path fill="#F2EFE7" d="M469 475Q469 411 444.5 362.0Q420 313 376.0 286.5Q332 260 274 260H218Q212 260 212 254V15Q212 8 208.0 4.0Q204 0 197 0H39Q32 0 28.0 4.0Q24 8 24 15V685Q24 692 28.0 696.0Q32 700 39 700H264Q324 700 370.5 671.5Q417 643 443.0 592.0Q469 541 469 475ZM281 471Q281 504 267.5 521.5Q254 539 231 539H218Q212 539 212 533V411Q212 405 218 405H231Q254 405 267.5 421.5Q281 438 281 471ZM501 206V494Q501 592 561.5 650.0Q622 708 723 708Q824 708 884.5 650.0Q945 592 945 494V206Q945 108 884.5 50.0Q824 -8 723 -8Q622 -8 561.5 50.0Q501 108 501 206ZM757 198V502Q757 523 748.0 535.0Q739 547 723 547Q707 547 698.0 535.0Q689 523 689 502V198Q689 177 698.0 165.0Q707 153 723 153Q739 153 748.0 165.0Q757 177 757 198ZM1120 13 980 684V688Q980 700 994 700H1166Q1181 700 1182 686L1227 332Q1227 329 1230.0 329.0Q1233 329 1233 332L1274 686Q1275 700 1290 700H1457Q1474 700 1471 684L1329 13Q1326 0 1312 0H1137Q1123 0 1120 13ZM1512 15V685Q1512 692 1516.0 696.0Q1520 700 1527 700H1685Q1692 700 1696.0 696.0Q1700 692 1700 685V487Q1700 483 1702.5 482.5Q1705 482 1707 486L1791 688Q1796 700 1809 700H1974Q1982 700 1986.0 695.0Q1990 690 1986 682L1845 387Q1844 383 1845 379L1990 17Q1991 14 1991 10Q1991 0 1978 0H1812Q1799 0 1794 12L1717 217Q1716 222 1713.5 222.0Q1711 222 1709 217L1701 197Q1700 195 1700 189V15Q1700 8 1696.0 4.0Q1692 0 1685 0H1527Q1520 0 1516.0 4.0Q1512 8 1512 15ZM2290 700H2448Q2455 700 2459.0 696.0Q2463 692 2463 685V15Q2463 8 2459.0 4.0Q2455 0 2448 0H2290Q2283 0 2279.0 4.0Q2275 8 2275 15V264Q2275 270 2269 270H2223Q2217 270 2217 264V15Q2217 8 2213.0 4.0Q2209 0 2202 0H2044Q2037 0 2033.0 4.0Q2029 8 2029 15V685Q2029 692 2033.0 696.0Q2037 700 2044 700H2202Q2209 700 2213.0 696.0Q2217 692 2217 685V437Q2217 431 2223 431H2269Q2275 431 2275 437V685Q2275 692 2279.0 696.0Q2283 700 2290 700Z" transform="translate(72 590) scale(0.34391322 -0.51000000)"/>
  <path fill="#F2EFE7" d="M26 15V685Q26 692 30.0 696.0Q34 700 41 700H199Q206 700 210.0 696.0Q214 692 214 685V167Q214 161 220 161H415Q422 161 426.0 157.0Q430 153 430 146V15Q430 8 426.0 4.0Q422 0 415 0H41Q34 0 30.0 4.0Q26 8 26 15ZM771 14 760 89Q760 91 758.0 93.0Q756 95 753 95H665Q662 95 660.0 93.0Q658 91 658 89L648 14Q647 0 632 0H475Q459 0 462 16L604 687Q607 700 621 700H803Q817 700 820 687L962 16V12Q962 0 948 0H787Q772 0 771 14ZM685 239H732Q739 239 737 245L710 425Q709 429 707.0 429.0Q705 429 704 425L680 245Q680 239 685 239ZM1229 0H1018Q1011 0 1007.0 4.0Q1003 8 1003 15V685Q1003 692 1007.0 696.0Q1011 700 1018 700H1199Q1308 700 1369.5 651.0Q1431 602 1431 503Q1431 411 1374 366Q1369 362 1372 359Q1445 303 1445 197Q1445 102 1384.0 51.0Q1323 0 1229 0ZM1191 533V433Q1191 427 1197 427H1202Q1247 427 1247 483Q1247 539 1202 539H1197Q1191 539 1191 533ZM1257 225Q1257 256 1245.5 274.5Q1234 293 1215 293H1197Q1191 293 1191 287V167Q1191 161 1197 161H1214Q1233 161 1245.0 177.5Q1257 194 1257 225Z" transform="translate(72 924) scale(0.58590007 -0.42000000)"/>
  <rect x="72" y="608" width="856" height="30" fill="#F32222"/>
</svg>
